/* XPM */
static char *f257352aadcd4d459d6983aba0ff64673QcYhvzphbSPKnA2[] = {
/* columns rows colors chars-per-pixel */
"80 80 4 1 ",
"  c black",
". c #5E3A04",
"X c #FFF200",
"o c gray52",
/* pixels */
"                                                                                ",
"ooooooooooo  oooooooooooooooooooooooooo  ooooooooooooooooooooooooo  oooooooooooo",
"ooooooooooo  oooooooooooooooooooooooooo  ooooooooooooooooooooooooo  oooooooooooo",
"ooooooooooo  oooooooooooooooooooooooooo  ooooooooooooooooooooooooo  oooooooooooo",
"ooooooooooo  oooooooooooooooooooooooooo  ooooooooooooooooooooooooo  oooooooooooo",
"ooooooooooo  oooooooooooooooooooooooooo  ooooooooooooooooooooooooo  oooooooooooo",
"ooooooooooo  oooooooooooooooooooooooooo  ooooooooooooooooooooooooo  oooooooooooo",
"ooooooooooo  oooooooooooooooooooooooooo  ooooooooooooooooooooooooo  oooooooooooo",
"ooooooooooo  oooooooooooooooooooooooooo  ooooooooooooooooooooooooo  oooooooooooo",
"ooooooooooo  oooooooooooooooooooooooooo  ooooooooooooooooooooooooo  oooooooooooo",
"ooooooooooo  oooooooooooooooooooooooooo  ooooooooooooooooooooooooo  oooooooooooo",
"                                                                                ",
"                                                                                ",
"oooooooooooooooo  ...........................................  ooooooooooooooo  ",
"oooooooooooooooo  ...........................................  ooooooooooooooo  ",
"oooooooooooooooo  ...........................................  ooooooooooooooo  ",
"oooooooooooooooo  ...........................................  ooooooooooooooo  ",
"oooooooooooooooo  ...........................................  ooooooooooooooo  ",
"oooooooooooooooo  ...........................................  ooooooooooooooo  ",
"oooooooooooooooo  ...........................................  ooooooooooooooo  ",
"oooooooooooooooo  ...........................................  ooooooooooooooo  ",
"oooooooooooooooo  ...........................................  ooooooooooooooo  ",
"oooooooooooooooo  ...........................................  ooooooooooooooo  ",
"oooooooooooooooo  ...........................................  ooooooooooooooo  ",
"                  ...........................................                   ",
"                  ...........................................                   ",
"ooooooooooo  ooo  ...........................................  ooo  oooooooooooo",
"ooooooooooo  ooo  ...........................................  ooo  oooooooooooo",
"ooooooooooo  ooo  ...........................................  ooo  oooooooooooo",
"ooooooooooo  ooo  ...........................................  ooo  oooooooooooo",
"ooooooooooo  ooo  ...........................................  ooo  oooooooooooo",
"ooooooooooo  ooo  ...........................................  ooo  oooooooooooo",
"ooooooooooo  ooo  ...........................................  ooo  oooooooooooo",
"ooooooooooo  ooo  ...........................................  ooo  oooooooooooo",
"ooooooooooo  ooo  ...........................................  ooo  oooooooooooo",
"ooooooooooo  ooo  ...........................................  ooo  oooooooooooo",
"ooooooooooo  ooo  ...........................................  ooo  oooooooooooo",
"ooooooooooo  ooo  ...........................................  ooo  oooooooooooo",
"ooooooooooo  ooo  ...........................................  ooo  oooooooooooo",
"                  ...........................................                   ",
"                  ...........................................                   ",
"oooooooooooooooo  ...........................................  ooooooooooooooo  ",
"oooooooooooooooo  ...........................................  ooooooooooooooo  ",
"oooooooooooooooo  ...........................................  ooooooooooooooo  ",
"oooooooooooooooo  ...........................................  ooooooooooooooo  ",
"oooooooooooooooo  ...........................................  ooooooooooooooo  ",
"oooooooooooooooo  ...........................................  ooooooooooooooo  ",
"oooooooooooooooo  ...........................................  ooooooooooooooo  ",
"oooooooooooooooo  ...........................................  ooooooooooooooo  ",
"oooooooooooooooo  ...........XX..............................  ooooooooooooooo  ",
"oooooooooooooooo  ...........XX..............................  ooooooooooooooo  ",
"oooooooooooooooo  ...........................................  ooooooooooooooo  ",
"oooooooooooooooo  ...........................................  ooooooooooooooo  ",
"                  ...........................................                   ",
"                  ...........................................                   ",
"ooooooooooo  ooo  ...........................................  ooo  oooooooooooo",
"ooooooooooo  ooo  ...........................................  ooo  oooooooooooo",
"ooooooooooo  ooo  ...........................................  ooo  oooooooooooo",
"ooooooooooo  ooo  ...........................................  ooo  oooooooooooo",
"ooooooooooo  ooo  ...........................................  ooo  oooooooooooo",
"ooooooooooo  ooo  ...........................................  ooo  oooooooooooo",
"ooooooooooo  ooo  ...........................................  ooo  oooooooooooo",
"ooooooooooo  ooo  ...........................................  ooo  oooooooooooo",
"ooooooooooo  ooo  ...........................................  ooo  oooooooooooo",
"ooooooooooo  ooo  ...........................................  ooo  oooooooooooo",
"ooooooooooo  ooo  ...........................................  ooo  oooooooooooo",
"                  ...........................................                   ",
"                  ...........................................                   ",
"oooooooooooooooo  ...........................................  ooooooooooooooo  ",
"oooooooooooooooo  ...........................................  ooooooooooooooo  ",
"oooooooooooooooo  ...........................................  ooooooooooooooo  ",
"oooooooooooooooo  ...........................................  ooooooooooooooo  ",
"oooooooooooooooo  ...........................................  ooooooooooooooo  ",
"oooooooooooooooo  ...........................................  ooooooooooooooo  ",
"oooooooooooooooo  ...........................................  ooooooooooooooo  ",
"oooooooooooooooo  ...........................................  ooooooooooooooo  ",
"oooooooooooooooo  ...........................................  ooooooooooooooo  ",
"oooooooooooooooo  ...........................................  ooooooooooooooo  ",
"oooooooooooooooo  ...........................................  ooooooooooooooo  ",
"                                                                                "
};