/* XPM */
static char *d9a2b03945404b36aa6bca35837a43c1Ck1oXCR6bP0pXVxE[] = {
/* columns rows colors chars-per-pixel */
"80 80 13 1 ",
"  c black",
". c #5E3A04",
"X c #402639",
"o c #464646",
"O c #A86C0C",
"+ c #FF7E00",
"@ c #FFF200",
"# c #F2E632",
"$ c #FFFF3A",
"% c #202022", /*Cor da pele da cara*/
"& c #2F3699",
"* c #546D8E",
"= c black", /Cor de olhos ou lentes/
/* pixels */
"XXXXXXXXXXXXXXXXXXXXXXXX  XXXXXXXXXXXXXXXXXXXXXXXXXXX  XXXXXXXXXXXXXXXXXXXXXXX  ",
"XXXXXXXXXXXXXXXXXXXXXXXX  XXXXX         XXXXXXXXXXXXX  XXXXXXXXXXXXXXXXXXXXXXX  ",
"XXXXXXXXXXXXXXXXXXXXXXXX  XX                  XXXXXXX  XXXXXXXXXXXXXXXXXXXXXXX  ",
"XXXXXXXXXXXXXXXXXXXXXXXX         oooooo          XXXX  XXXXXXXXXXXXXXXXXXXXXXX  ",
"XXXXXXXXXXXXXXXXXXXXXXXX      oooooooooooooo           XXXXXXXXXXXXXXXXXXXXXXX  ",
"XXXXXXXXXXXXXXXXXXXXXX      oooooooooooooooooooo        XXXXXXXXXXXXXXXXXXXXXX  ",
"XXXXXXXXXXXXXXXXXXXX     ooooooooooooooooooooooooooo     XXXXXXXXXXXXXXXXXXXXX  ",
"XXXXXXXXXXXXXXXXXX     ooooooooooooooooooooooooooooooo    XXXXXXXXXXXXXXXXXXXX  ",
"XXXXXXXXXXXXXXXXXX   oooooooooooooooooooooooooooooooooo    XXXXXXXXXXXXXXXXXXX  ",
"XXXXXXXXXXXXXXXXX   oooooooooooooooooooooooooooooooooooo    XXXXXXXXXXXXXXXXXX  ",
"XXXXXXXXXXXXXXXXX        oooooooooooooooooooooooooooooooo   XXXXXXXXXXXXXXXXXX  ",
"XXXXXXXXXXXXXXXXX                     oooooooooooooooooooo   XXXXXXXXXXXXXXXXX  ",
"XXXXXXXXXXXXXXXXX                                  ooooooo   XXXXXXXXXXXX##XXX  ",
"XXXXXXXXXXXXXXXXX                                           #XXXXXXXXXXXX##XXX  ",
"XXXXXXXXXXXXXXXX                                           XXXXXXXXXXXXXXXXXXX  ",
"XXXXXXXXXXXXXXXX    %%                                     XXXXXXXXXXXXXXXXXXX  ",
"XXXXXXXXXXXXXXXX  %%%%%%           ==                      XXXXXXXXXXXXXXXXXXX  ",
"XXXXXXXXXXXXXXXX  %%%%%%           ====           ====     XXXXXXXXXXXXXXXXXXX  ",
"XXXXXXXXXXXXXXXX  %%%%%%           ====           ====    XXXXXXXXXXXXXXXXXXXX  ",
"XXXXXXXXXXXXXXXX  %%%%%%%          =====          ====                          ",
"XXXXXXXXXXXXXXXX  %%%%%%%%         =====          ====                          ",
"XXXXXXXXXXXXXXXX  %%%%%%%%%        =====          ====    XXXXXXXXXXXXXXXXXXXX  ",
"XXXXXXXXXXXXXXXX  %%%%%%%%%%       =====          ====    XXXXXXXXXXXXXXXXXXXX  ",
"XXXXXXXXXXXXXXXX   %%%%%%%%%%      =====          ====    XXXXXXXXXXXXXXXXXXXX  ",
"XXXXXXXXXXXXXXXXX  %%%%%%%%%%%     =====          ====    XXXXXXXXXXXXXXXXXXXX  ",
"XXXXXXXXXXXXXXXXX       %%%%%%%                           XXXXXXXXXXXXXXXXXXXX  ",
"XXXXXXXXXXXXXXXXXX      %%%%%%%%              %%          X##XXXXXXXXXXXX##XXX  ",
"XXXXXXXXXXXXXXXXXX    %%%%%%%%%%%             %%          X##XXXXXXXXXXXX##XXX  ",
"XXXXXXXXXXXXXXXXXXX     %%%%%%%%%%          %%%%         XXXXXXXXXXXXXXXXXXXXX  ",
"XXXXXXXXXXXXXXXXXXXX         %%%%%%%%    %%%%%%%%%%%%%   XXXXXXXXXXXXXXXXXXXXX  ",
"XXXXXXXXXXXXXXXXXXXXX         %%%%%%%%%%%%%%%%%%%%%%%   XXXXXXXXXXXXXXXXXXXXXX  ",
"XXXXXXXXXXXXXXXXXXXX    ooooo    %%%%%%%%%%%%%%%%%%    XXXXXXXXXXXXXXXXXXXXXXX  ",
"XXXXXXXXXXXXXXXXXXXX   oooooooo    %%%%%%%%%%%%%%%     XXXXXXXXXXXXXXXXXXXXXXX  ",
"XXXXXXXXXXXXXXXXXXXX  oooooooooooo   %%%%%%%%%%%%   X  XXXXXXXXXXXXXXXXXXXXXXX  ",
"XXXXXXXXXXXXXXXXXXXX  ooooooooooooo  %%%%%%%%%%    XX  XXXXXXXXXXXXXXXXXXXXXXX  ",
"XXXXXXXXXXXXXXXXXXXX  ooooooooooooo                XX  XXXXXXXXXXXXXXXXXXXXXXX  ",
"XXXXXXXXXXXXXXXXXX              oooo                X  XXXXXXXXXXXXXXXXXXXXXXX  ",
"XXXXXXXXXXXXXXXXX                ooo  %%%%%%%  oooo X  XXXXXXXXXXXXXXXXXXXXXXX  ",
"XXXXXXXXXXXXXXX    OOOOO   oo  .  oo  %%%%%%%  oooo    XXXXXXXXXXXXXXXXXXXXXXX  ",
"XXXXXXXXXXXXXX    OOOOO  oooo  .. oo  %%%%%%%  oooo    XXXXXXXXXXXXXXXXXXXXXXX  ",
"XXXXXXXXXXXXX    .OOOOO ooooo  ..  o  %%%%%%%  ooooo   XXXXXXXXXXXXXXXXXXXXXXX  ",
"XXXXXXXXXXXX    ..OOOO  ooooo  ...    +++++++  ooooo    XXXXXXXXXXXXXXXXXXXXXX  ",
"XXXXXXXXXXX    ...OOO  oooooo  ...    +++++++  ooooo      XXXXXXX      XXXXXXX  ",
"XXXXXXXXXX    ...OOOO  oooooo         &&&&&&&  ooooo  ooo   XXXX        XXXXXX  ",
"XXXXXXXXX    ...OOOO oooooooo         &&&&&&&  ooooo  oooo   XXX ****** XXXXXX  ",
"XXXXXXXX    ...OOOO  oooooooo  *****  +++++++  ooooo  ooooo   X ******* XXXXXX  ",
"XXXXXXXX   ...OOOOO ooooooooo  *****  +++++++  ooooo  ooooooo   ******* XXXXXX  ",
"XXXXXXX   ...OOOOO  ooooooooo  *****  &&&&&&&  ooooo  oooooooo  ******* XXXXXX  ",
"XXXXXX   ...OOOOOO  ooooooooo  *****  &&&&&&&  ooooo  ooooooooo  ****** XXXXXX  ",
"XXXXXX   O.OOOOOOO  ooooooooo  *****  +++++++  ooooo  ooooooooo        XXXXXXX  ",
"XXXXX   ..OOOOOOOO  ooooooooo  *****  +++++++  ooooo  ooooooooo   XXXXXXXXXXXX  ",
"XXXX#  ...OOOOOOOO                                                XXXXXXXXXXXX  ",
"XXXX   ...OOOOOOOO                                                XXXXXXXXXXXX  ",
"XXXX   ...OOOOOOOOOOOOOOOOOOO  ooooooooooooooo$$o$$o   XXXXXXXXXXXXXXXXXXXXXXX  ",
"XXXX    ...OOOOOOOOOOOOOOOOOO  ooooooooooooooo@@o@@o   XXXXXXXXXXXXXXXXXXXXXXX  ",
"XXXX    ....OOOOOOOOOOOOOOOOO  ooooooooooooooo@@o@@o   XXXXXXXXXXXXXXXXXXXXXXX  ",
"XXXXXX    .....OOOOOOOOOOO...                          XXXXXXXXXXXXXXXXXXXXXXX  ",
"XXXXXXX   ......OOOOOOOO....                           XXXXXXXXXXXXXXXXXXXXXXX  ",
"           ......OOOOOO.....  oooooooooooooooooooooo   XXXXXXXXXXXXXXXXXXXXXXX  ",
"            ......OOOO.....   oooooooooooooooooooooo   XXXXXXXXXXXXXXXXXXXXXXX  ",
"XXXXXXXXX   .......OO......  ooooooooooooooooooooooo   XXXXXXXXXXXXXXXXXXXXXXX  ",
"XXXXXXXXXX   ......OO.....   oooooooooooooooooooooooo  XXXXXXXXXXXXXXXXXXXXXXX  ",
"XXXXXXXXXXX   ...........   ooooooooooooooooooooooooo  XXXXXXXXXXXXXXXXXXXXXXX  ",
"XXXXXXXXXXXX   ..........  oooooooooooooooooooooooooo  XXXXXXXXXXXXXXXXXXXXXXX  ",
"XXXXXXXXXXXX    ......     oooooo            oooooooo  XXXXXXXXXXXXXXXXXXXXXXX  ",
"XXXX##XXXXXXX             ooooooo            oooooooo  XXXXXXXXXXXXXXXXXXXXXXX  ",
"XXXX##XXXXXXXXX           ooooo  XXXXXXXXXXXX  oooooo  XXXXXXXXXXXXXXXXXXXXXXX  ",
"XXXXXXXXXXXXXXXXXXXXXXX  oooooo  XXXXXXXXXXXX  oooooo   XXXXXXXXXXXXXXXXXXXXXX  ",
"XXXXXXXXXXXXXXXXXXXXXXX  oooooo  XXXXXXXXXXXX    ooooo  XXXXXXXXXXXXXXXXXXXXXX  ",
"XXXXXXXXXXXXXXXXXXXXXXX  oooooo  XXXXXXXXXXXX    ooooo  XXXXXXXXXXXXXXXXXXXXXX  ",
"XXXXXXXXXXXXXXXXXXXXXXX  oooo  XXXXXXXXXXXXXXXXXX  ooo  XXXXXXXXXXXXXXXXXXXXXX  ",
"XXXXXXXXXXXXXXXXXXXXXXX  oooo  XXXXXXXXXXXXXXXXXX  ooo  XXXXXXXXXXXXXXXXXXXXXX  ",
"XXXXXXXXXXXXXXXXXXXXXXX        XXXXXXXXXXXXXXXXXX       XXXXXXXXXXXXXXXXXXXXXX  ",
"XXXXXXXXXXXXXXXXXXXXXXX        XXXXXXXXXXXXXXXXXX       XXXXXXXXXXXXXXXXXXXXXX  ",
"XXXXXXXXXXXXXXXXXXXXXXX  oo%%  XXXXXXXXXXXXXXXXXX  oo%  XXXXXXXXXXXXXXXXXXXXXX  ",
"XXXXXXXXXXXXXXXXXXXXXXX  oooo  XXXXXXXXXXXXXXXXXX  ooo  XXXXXXXXXXXXXXXXXXXXXX  ",
"XXXXXXXXXXXXXXXXXXXXXXX  oooo  XXXXXXXXXXXXXXXXXX  ooo  XXXXXXXXXXXXXXXXXXXXXX  ",
"XXXXXXXXXXXXXXXXXXXXXXX        XXXXXXXXXXXXXXXXXX       XXXXXXXXXXXXXXXXXXXXXX  ",
"XXXXXXXXXXXXXXXXXXXXXXX        XXXXXXXXXXXXXXXXXX       XXXXXXXXXXXXXXXXXXXXXX  ",
"XXXXXXXXXXXXXXXXXXXXXXXX  XXXXXXXXXXXXXXXXXXXXXXXXXXX  XXXXXXXXXXXXXXXXXXXXXXX  "
};