/* XPM */
static char *_297b20823d3485bf651ed927b0576c5ZrHKnBhB8kFILHee[] = {
/* columns rows colors chars-per-pixel */
"80 80 2 1 ",
"  c black",
". c gray52",
/* pixels */
"                                                                                ",
"...........  ..........................  .........................  ............",
"...........  ..........................  .........................  ............",
"...........  ..........................  .........................  ............",
"...........  ..........................  .........................  ............",
"...........  ..........................  .........................  ............",
"...........  ..........................  .........................  ............",
"...........  ..........................  .........................  ............",
"...........  ..........................  .........................  ............",
"...........  ..........................  .........................  ............",
"...........  ..........................  .........................  ............",
"                                                                                ",
"                                                                                ",
".........................  .........................  ........................  ",
".........................  .........................  ........................  ",
".........................  .........................  ........................  ",
".........................  .........................  ........................  ",
".........................  .........................  ........................  ",
".........................  .........................  ........................  ",
".........................  .........................  ........................  ",
".........................  .........................  ........................  ",
".........................  .........................  ........................  ",
".........................  .........................  ........................  ",
".........................  .........................  ........................  ",
"                                                                                ",
"                                                                                ",
"...........  ..........................  .........................  ............",
"...........  ..........................  .........................  ............",
"...........  ..........................  .........................  ............",
"...........  ..........................  .........................  ............",
"...........  ..........................  .........................  ............",
"...........  ..........................  .........................  ............",
"...........  ..........................  .........................  ............",
"...........  ..........................  .........................  ............",
"...........  ..........................  .........................  ............",
"...........  ..........................  .........................  ............",
"...........  ..........................  .........................  ............",
"...........  ..........................  .........................  ............",
"...........  ..........................  .........................  ............",
"                                                                                ",
"                                                                                ",
".........................  .........................  ........................  ",
".........................  .........................  ........................  ",
".........................  .........................  ........................  ",
".........................  .........................  ........................  ",
".........................  .........................  ........................  ",
".........................  .........................  ........................  ",
".........................  .........................  ........................  ",
".........................  .........................  ........................  ",
".........................  .........................  ........................  ",
".........................  .........................  ........................  ",
".........................  .........................  ........................  ",
".........................  .........................  ........................  ",
"                                                                                ",
"                                                                                ",
"...........  ...........................  ........................  ............",
"...........  ...........................  ........................  ............",
"...........  ...........................  ........................  ............",
"...........  ...........................  ........................  ............",
"...........  ...........................  ........................  ............",
"...........  ...........................  ........................  ............",
"...........  ...........................  ........................  ............",
"...........  ...........................  ........................  ............",
"...........  ...........................  ........................  ............",
"...........  ...........................  ........................  ............",
"...........  ...........................  ........................  ............",
"                                                                                ",
"                                                                                ",
".........................  .........................  ........................  ",
".........................  .........................  ........................  ",
".........................  .........................  ........................  ",
".........................  .........................  ........................  ",
".........................  .........................  ........................  ",
".........................  .........................  ........................  ",
".........................  .........................  ........................  ",
".........................  .........................  ........................  ",
".........................  .........................  ........................  ",
".........................  .........................  ........................  ",
".........................  .........................  ........................  ",
"                                                                                "
};

